<mxfile host="app.diagrams.net" modified="2023-12-19T14:17:36.532Z" agent="Mozilla/5.0 (Macintosh; Intel Mac OS X 10_15_7) AppleWebKit/605.1.15 (KHTML, like Gecko) Version/17.1 Safari/605.1.15" version="22.1.11" etag="zjxDbA8alrnoESPu47-e" type="github">
  <diagram name="Page-1" id="89u7FnKBbTargtBgbZHi">
    <mxGraphModel>
      <root>
        <mxCell id="0" />
        <mxCell id="1" parent="0" />
      </root>
    </mxGraphModel>
  </diagram>
</mxfile>
